<mxfile host="app.diagrams.net" modified="2021-05-15T09:10:23.171Z" agent="5.0 (Macintosh; Intel Mac OS X 10_15_6) AppleWebKit/605.1.15 (KHTML, like Gecko) Version/14.0.3 Safari/605.1.15" etag="Scyfvt_lKphkTTGN5Pzi" version="14.6.13" type="github">
  <diagram id="2GeDHIiJQ9i0ZAXMB6go" name="Page-1">
    <mxGraphModel dx="1186" dy="617" grid="1" gridSize="10" guides="1" tooltips="1" connect="1" arrows="1" fold="1" page="1" pageScale="1" pageWidth="827" pageHeight="1169" math="0" shadow="0">
      <root>
        <mxCell id="0" />
        <mxCell id="1" parent="0" />
        <mxCell id="XJ4RsiavHhW2-40Pzid3-6" value="" style="shape=folder;fontStyle=1;spacingTop=10;tabWidth=90;tabHeight=20;tabPosition=left;html=1;" vertex="1" parent="1">
          <mxGeometry x="40" y="48" width="100" height="282" as="geometry" />
        </mxCell>
        <mxCell id="XJ4RsiavHhW2-40Pzid3-2" value="Teller 2" style="shape=umlActor;verticalLabelPosition=bottom;verticalAlign=top;html=1;outlineConnect=0;" vertex="1" parent="1">
          <mxGeometry x="70" y="159" width="30" height="60" as="geometry" />
        </mxCell>
        <mxCell id="XJ4RsiavHhW2-40Pzid3-3" value="Teller 3&lt;br&gt;" style="shape=umlActor;verticalLabelPosition=bottom;verticalAlign=top;html=1;outlineConnect=0;" vertex="1" parent="1">
          <mxGeometry x="70" y="249" width="30" height="60" as="geometry" />
        </mxCell>
        <mxCell id="XJ4RsiavHhW2-40Pzid3-4" value="Teller 1&lt;br&gt;" style="shape=umlActor;verticalLabelPosition=bottom;verticalAlign=top;html=1;outlineConnect=0;" vertex="1" parent="1">
          <mxGeometry x="70" y="74" width="30" height="60" as="geometry" />
        </mxCell>
        <mxCell id="XJ4RsiavHhW2-40Pzid3-7" value="&lt;b&gt;Global queue&lt;/b&gt;" style="text;html=1;strokeColor=none;fillColor=none;align=center;verticalAlign=middle;whiteSpace=wrap;rounded=0;" vertex="1" parent="1">
          <mxGeometry x="40" y="50" width="90" height="20" as="geometry" />
        </mxCell>
        <mxCell id="XJ4RsiavHhW2-40Pzid3-18" style="edgeStyle=orthogonalEdgeStyle;rounded=0;orthogonalLoop=1;jettySize=auto;html=1;entryX=1.01;entryY=0.209;entryDx=0;entryDy=0;entryPerimeter=0;exitX=0;exitY=0.5;exitDx=0;exitDy=0;" edge="1" parent="1" source="XJ4RsiavHhW2-40Pzid3-17" target="XJ4RsiavHhW2-40Pzid3-6">
          <mxGeometry relative="1" as="geometry">
            <Array as="points">
              <mxPoint x="240" y="189" />
              <mxPoint x="190" y="189" />
              <mxPoint x="190" y="107" />
            </Array>
          </mxGeometry>
        </mxCell>
        <mxCell id="XJ4RsiavHhW2-40Pzid3-19" style="edgeStyle=orthogonalEdgeStyle;rounded=0;orthogonalLoop=1;jettySize=auto;html=1;exitX=0;exitY=0.25;exitDx=0;exitDy=0;" edge="1" parent="1" source="XJ4RsiavHhW2-40Pzid3-17">
          <mxGeometry relative="1" as="geometry">
            <mxPoint x="140" y="189" as="targetPoint" />
            <Array as="points">
              <mxPoint x="240" y="189" />
              <mxPoint x="140" y="189" />
            </Array>
          </mxGeometry>
        </mxCell>
        <mxCell id="XJ4RsiavHhW2-40Pzid3-20" style="edgeStyle=orthogonalEdgeStyle;rounded=0;orthogonalLoop=1;jettySize=auto;html=1;exitX=0;exitY=0.75;exitDx=0;exitDy=0;entryX=0;entryY=0;entryDx=100;entryDy=216.5;entryPerimeter=0;" edge="1" parent="1" source="XJ4RsiavHhW2-40Pzid3-17" target="XJ4RsiavHhW2-40Pzid3-6">
          <mxGeometry relative="1" as="geometry">
            <Array as="points">
              <mxPoint x="240" y="189" />
              <mxPoint x="190" y="189" />
              <mxPoint x="190" y="265" />
            </Array>
          </mxGeometry>
        </mxCell>
        <mxCell id="XJ4RsiavHhW2-40Pzid3-17" value="" style="rounded=0;whiteSpace=wrap;html=1;" vertex="1" parent="1">
          <mxGeometry x="240" y="159" width="490" height="71" as="geometry" />
        </mxCell>
        <mxCell id="XJ4RsiavHhW2-40Pzid3-21" value="Customer" style="shape=umlActor;verticalLabelPosition=bottom;verticalAlign=top;html=1;outlineConnect=0;" vertex="1" parent="1">
          <mxGeometry x="260" y="169" width="20" height="40" as="geometry" />
        </mxCell>
        <mxCell id="XJ4RsiavHhW2-40Pzid3-22" value="Customer" style="shape=umlActor;verticalLabelPosition=bottom;verticalAlign=top;html=1;outlineConnect=0;" vertex="1" parent="1">
          <mxGeometry x="320" y="169" width="20" height="40" as="geometry" />
        </mxCell>
        <mxCell id="XJ4RsiavHhW2-40Pzid3-23" value="Customer" style="shape=umlActor;verticalLabelPosition=bottom;verticalAlign=top;html=1;outlineConnect=0;" vertex="1" parent="1">
          <mxGeometry x="380" y="169" width="20" height="40" as="geometry" />
        </mxCell>
        <mxCell id="XJ4RsiavHhW2-40Pzid3-24" value="Customer" style="shape=umlActor;verticalLabelPosition=bottom;verticalAlign=top;html=1;outlineConnect=0;" vertex="1" parent="1">
          <mxGeometry x="440" y="169" width="20" height="40" as="geometry" />
        </mxCell>
        <mxCell id="XJ4RsiavHhW2-40Pzid3-25" value="Customer" style="shape=umlActor;verticalLabelPosition=bottom;verticalAlign=top;html=1;outlineConnect=0;" vertex="1" parent="1">
          <mxGeometry x="500" y="169" width="20" height="40" as="geometry" />
        </mxCell>
        <mxCell id="XJ4RsiavHhW2-40Pzid3-26" value="Customer" style="shape=umlActor;verticalLabelPosition=bottom;verticalAlign=top;html=1;outlineConnect=0;" vertex="1" parent="1">
          <mxGeometry x="560" y="169" width="20" height="40" as="geometry" />
        </mxCell>
        <mxCell id="XJ4RsiavHhW2-40Pzid3-30" value="Customer" style="shape=umlActor;verticalLabelPosition=bottom;verticalAlign=top;html=1;outlineConnect=0;" vertex="1" parent="1">
          <mxGeometry x="620" y="169" width="20" height="40" as="geometry" />
        </mxCell>
        <mxCell id="XJ4RsiavHhW2-40Pzid3-31" value="Customer" style="shape=umlActor;verticalLabelPosition=bottom;verticalAlign=top;html=1;outlineConnect=0;" vertex="1" parent="1">
          <mxGeometry x="680" y="169" width="20" height="40" as="geometry" />
        </mxCell>
        <mxCell id="XJ4RsiavHhW2-40Pzid3-33" value="" style="shape=folder;fontStyle=1;spacingTop=10;tabWidth=90;tabHeight=20;tabPosition=left;html=1;" vertex="1" parent="1">
          <mxGeometry x="40" y="380" width="100" height="120" as="geometry" />
        </mxCell>
        <mxCell id="XJ4RsiavHhW2-40Pzid3-34" value="&lt;b&gt;Custom queue&lt;/b&gt;" style="text;html=1;strokeColor=none;fillColor=none;align=center;verticalAlign=middle;whiteSpace=wrap;rounded=0;" vertex="1" parent="1">
          <mxGeometry x="41" y="380" width="90" height="20" as="geometry" />
        </mxCell>
        <mxCell id="XJ4RsiavHhW2-40Pzid3-35" value="Teller 1&lt;br&gt;" style="shape=umlActor;verticalLabelPosition=bottom;verticalAlign=top;html=1;outlineConnect=0;" vertex="1" parent="1">
          <mxGeometry x="70" y="410" width="30" height="60" as="geometry" />
        </mxCell>
        <mxCell id="XJ4RsiavHhW2-40Pzid3-36" value="" style="shape=folder;fontStyle=1;spacingTop=10;tabWidth=90;tabHeight=20;tabPosition=left;html=1;" vertex="1" parent="1">
          <mxGeometry x="41" y="510" width="100" height="120" as="geometry" />
        </mxCell>
        <mxCell id="XJ4RsiavHhW2-40Pzid3-37" value="&lt;b&gt;Custom queue&lt;/b&gt;" style="text;html=1;strokeColor=none;fillColor=none;align=center;verticalAlign=middle;whiteSpace=wrap;rounded=0;" vertex="1" parent="1">
          <mxGeometry x="42" y="510" width="90" height="20" as="geometry" />
        </mxCell>
        <mxCell id="XJ4RsiavHhW2-40Pzid3-38" value="Teller 2" style="shape=umlActor;verticalLabelPosition=bottom;verticalAlign=top;html=1;outlineConnect=0;" vertex="1" parent="1">
          <mxGeometry x="71" y="540" width="30" height="60" as="geometry" />
        </mxCell>
        <mxCell id="XJ4RsiavHhW2-40Pzid3-39" value="" style="shape=folder;fontStyle=1;spacingTop=10;tabWidth=90;tabHeight=20;tabPosition=left;html=1;" vertex="1" parent="1">
          <mxGeometry x="42" y="640" width="100" height="120" as="geometry" />
        </mxCell>
        <mxCell id="XJ4RsiavHhW2-40Pzid3-40" value="&lt;b&gt;Custom queue&lt;/b&gt;" style="text;html=1;strokeColor=none;fillColor=none;align=center;verticalAlign=middle;whiteSpace=wrap;rounded=0;" vertex="1" parent="1">
          <mxGeometry x="43" y="640" width="90" height="20" as="geometry" />
        </mxCell>
        <mxCell id="XJ4RsiavHhW2-40Pzid3-41" value="Teller 2" style="shape=umlActor;verticalLabelPosition=bottom;verticalAlign=top;html=1;outlineConnect=0;" vertex="1" parent="1">
          <mxGeometry x="72" y="670" width="30" height="60" as="geometry" />
        </mxCell>
        <mxCell id="XJ4RsiavHhW2-40Pzid3-42" value="" style="rounded=0;whiteSpace=wrap;html=1;" vertex="1" parent="1">
          <mxGeometry x="140" y="410" width="490" height="71" as="geometry" />
        </mxCell>
        <mxCell id="XJ4RsiavHhW2-40Pzid3-43" value="Customer" style="shape=umlActor;verticalLabelPosition=bottom;verticalAlign=top;html=1;outlineConnect=0;" vertex="1" parent="1">
          <mxGeometry x="160" y="420" width="20" height="40" as="geometry" />
        </mxCell>
        <mxCell id="XJ4RsiavHhW2-40Pzid3-44" value="Customer" style="shape=umlActor;verticalLabelPosition=bottom;verticalAlign=top;html=1;outlineConnect=0;" vertex="1" parent="1">
          <mxGeometry x="220" y="420" width="20" height="40" as="geometry" />
        </mxCell>
        <mxCell id="XJ4RsiavHhW2-40Pzid3-45" value="Customer" style="shape=umlActor;verticalLabelPosition=bottom;verticalAlign=top;html=1;outlineConnect=0;" vertex="1" parent="1">
          <mxGeometry x="280" y="420" width="20" height="40" as="geometry" />
        </mxCell>
        <mxCell id="XJ4RsiavHhW2-40Pzid3-46" value="Customer" style="shape=umlActor;verticalLabelPosition=bottom;verticalAlign=top;html=1;outlineConnect=0;" vertex="1" parent="1">
          <mxGeometry x="340" y="420" width="20" height="40" as="geometry" />
        </mxCell>
        <mxCell id="XJ4RsiavHhW2-40Pzid3-47" value="Customer" style="shape=umlActor;verticalLabelPosition=bottom;verticalAlign=top;html=1;outlineConnect=0;" vertex="1" parent="1">
          <mxGeometry x="400" y="420" width="20" height="40" as="geometry" />
        </mxCell>
        <mxCell id="XJ4RsiavHhW2-40Pzid3-48" value="Customer" style="shape=umlActor;verticalLabelPosition=bottom;verticalAlign=top;html=1;outlineConnect=0;" vertex="1" parent="1">
          <mxGeometry x="460" y="420" width="20" height="40" as="geometry" />
        </mxCell>
        <mxCell id="XJ4RsiavHhW2-40Pzid3-49" value="Customer" style="shape=umlActor;verticalLabelPosition=bottom;verticalAlign=top;html=1;outlineConnect=0;" vertex="1" parent="1">
          <mxGeometry x="520" y="420" width="20" height="40" as="geometry" />
        </mxCell>
        <mxCell id="XJ4RsiavHhW2-40Pzid3-50" value="Customer" style="shape=umlActor;verticalLabelPosition=bottom;verticalAlign=top;html=1;outlineConnect=0;" vertex="1" parent="1">
          <mxGeometry x="580" y="420" width="20" height="40" as="geometry" />
        </mxCell>
        <mxCell id="XJ4RsiavHhW2-40Pzid3-51" value="" style="rounded=0;whiteSpace=wrap;html=1;" vertex="1" parent="1">
          <mxGeometry x="141" y="540" width="490" height="71" as="geometry" />
        </mxCell>
        <mxCell id="XJ4RsiavHhW2-40Pzid3-52" value="Customer" style="shape=umlActor;verticalLabelPosition=bottom;verticalAlign=top;html=1;outlineConnect=0;" vertex="1" parent="1">
          <mxGeometry x="161" y="550" width="20" height="40" as="geometry" />
        </mxCell>
        <mxCell id="XJ4RsiavHhW2-40Pzid3-53" value="Customer" style="shape=umlActor;verticalLabelPosition=bottom;verticalAlign=top;html=1;outlineConnect=0;" vertex="1" parent="1">
          <mxGeometry x="221" y="550" width="20" height="40" as="geometry" />
        </mxCell>
        <mxCell id="XJ4RsiavHhW2-40Pzid3-54" value="Customer" style="shape=umlActor;verticalLabelPosition=bottom;verticalAlign=top;html=1;outlineConnect=0;" vertex="1" parent="1">
          <mxGeometry x="281" y="550" width="20" height="40" as="geometry" />
        </mxCell>
        <mxCell id="XJ4RsiavHhW2-40Pzid3-55" value="Customer" style="shape=umlActor;verticalLabelPosition=bottom;verticalAlign=top;html=1;outlineConnect=0;" vertex="1" parent="1">
          <mxGeometry x="341" y="550" width="20" height="40" as="geometry" />
        </mxCell>
        <mxCell id="XJ4RsiavHhW2-40Pzid3-56" value="Customer" style="shape=umlActor;verticalLabelPosition=bottom;verticalAlign=top;html=1;outlineConnect=0;" vertex="1" parent="1">
          <mxGeometry x="401" y="550" width="20" height="40" as="geometry" />
        </mxCell>
        <mxCell id="XJ4RsiavHhW2-40Pzid3-57" value="Customer" style="shape=umlActor;verticalLabelPosition=bottom;verticalAlign=top;html=1;outlineConnect=0;" vertex="1" parent="1">
          <mxGeometry x="461" y="550" width="20" height="40" as="geometry" />
        </mxCell>
        <mxCell id="XJ4RsiavHhW2-40Pzid3-58" value="Customer" style="shape=umlActor;verticalLabelPosition=bottom;verticalAlign=top;html=1;outlineConnect=0;" vertex="1" parent="1">
          <mxGeometry x="521" y="550" width="20" height="40" as="geometry" />
        </mxCell>
        <mxCell id="XJ4RsiavHhW2-40Pzid3-59" value="Customer" style="shape=umlActor;verticalLabelPosition=bottom;verticalAlign=top;html=1;outlineConnect=0;" vertex="1" parent="1">
          <mxGeometry x="581" y="550" width="20" height="40" as="geometry" />
        </mxCell>
        <mxCell id="XJ4RsiavHhW2-40Pzid3-70" value="" style="rounded=0;whiteSpace=wrap;html=1;" vertex="1" parent="1">
          <mxGeometry x="142" y="670" width="490" height="71" as="geometry" />
        </mxCell>
        <mxCell id="XJ4RsiavHhW2-40Pzid3-71" value="Customer" style="shape=umlActor;verticalLabelPosition=bottom;verticalAlign=top;html=1;outlineConnect=0;" vertex="1" parent="1">
          <mxGeometry x="162" y="680" width="20" height="40" as="geometry" />
        </mxCell>
        <mxCell id="XJ4RsiavHhW2-40Pzid3-72" value="Customer" style="shape=umlActor;verticalLabelPosition=bottom;verticalAlign=top;html=1;outlineConnect=0;" vertex="1" parent="1">
          <mxGeometry x="222" y="680" width="20" height="40" as="geometry" />
        </mxCell>
        <mxCell id="XJ4RsiavHhW2-40Pzid3-73" value="Customer" style="shape=umlActor;verticalLabelPosition=bottom;verticalAlign=top;html=1;outlineConnect=0;" vertex="1" parent="1">
          <mxGeometry x="282" y="680" width="20" height="40" as="geometry" />
        </mxCell>
        <mxCell id="XJ4RsiavHhW2-40Pzid3-74" value="Customer" style="shape=umlActor;verticalLabelPosition=bottom;verticalAlign=top;html=1;outlineConnect=0;" vertex="1" parent="1">
          <mxGeometry x="342" y="680" width="20" height="40" as="geometry" />
        </mxCell>
        <mxCell id="XJ4RsiavHhW2-40Pzid3-75" value="Customer" style="shape=umlActor;verticalLabelPosition=bottom;verticalAlign=top;html=1;outlineConnect=0;" vertex="1" parent="1">
          <mxGeometry x="402" y="680" width="20" height="40" as="geometry" />
        </mxCell>
        <mxCell id="XJ4RsiavHhW2-40Pzid3-76" value="Customer" style="shape=umlActor;verticalLabelPosition=bottom;verticalAlign=top;html=1;outlineConnect=0;" vertex="1" parent="1">
          <mxGeometry x="462" y="680" width="20" height="40" as="geometry" />
        </mxCell>
        <mxCell id="XJ4RsiavHhW2-40Pzid3-77" value="Customer" style="shape=umlActor;verticalLabelPosition=bottom;verticalAlign=top;html=1;outlineConnect=0;" vertex="1" parent="1">
          <mxGeometry x="522" y="680" width="20" height="40" as="geometry" />
        </mxCell>
        <mxCell id="XJ4RsiavHhW2-40Pzid3-78" value="Customer" style="shape=umlActor;verticalLabelPosition=bottom;verticalAlign=top;html=1;outlineConnect=0;" vertex="1" parent="1">
          <mxGeometry x="582" y="680" width="18" height="40" as="geometry" />
        </mxCell>
      </root>
    </mxGraphModel>
  </diagram>
</mxfile>
